<!-- frontend/public/netflix-logo.svg -->
<svg xmlns="http://www.w3.org/2000/svg" width="120" height="32" viewBox="0 0 1024 276.742">
  <path fill="#E50914" d="M140.803 258.904c-15.404 2.705-31.079 3.516-47.294 5.676l-49.458-6.169v-70.308h-2.004c-22.104 0-33.109-21.002-33.109-47.14 0-26.138 11.005-47.14 33.109-47.14h2.004v-48.028c0-23.553 18.306-41.859 41.859-41.859h41.861c23.553 0 41.859 18.306 41.859 41.859v48.028h30.287c15.404 2.705 31.079 3.516 47.294 5.676l49.458 6.169v70.308h2.004c22.104 0 33.109 21.002 33.109 47.14 0 26.138-11.005 47.14-33.109 47.14h-2.004v48.028c0 23.553-18.306 41.859-41.859 41.859h-41.861c-23.553 0-41.859-18.306-41.859-41.859z"/>
</svg>